<?xml version="1.0" encoding="utf-8"?>
<!-- Generator: Adobe Illustrator 22.0.1, SVG Export Plug-In . SVG Version: 6.00 Build 0)  -->
<svg version="1.1" id="Capa_1" xmlns="http://www.w3.org/2000/svg" xmlns:xlink="http://www.w3.org/1999/xlink" x="0px" y="0px"
	 viewBox="0 0 100 100" style="enable-background:new 0 0 100 100;" xml:space="preserve">
<style type="text/css">
	.st0{fill:#4D4D4D;}
</style>
<g>
	<path class="st0" d="M43.1,66.1c-2.6,13.8-5.8,27-15.3,33.9c-2.9-20.8,4.3-36.4,7.7-53c-5.7-9.6,0.7-29.1,12.8-24.3
		c14.9,5.9-12.9,35.9,5.8,39.6c19.5,3.9,27.4-33.8,15.3-46C51.8-1.4,18.5,15.9,22.6,41.2c1,6.2,7.4,8.1,2.6,16.6
		c-11.2-2.5-14.5-11.3-14.1-23C11.8,15.6,28.4,2.2,45,0.3C66-2,85.7,8,88.4,27.8c3.1,22.3-9.5,46.5-31.9,44.7
		C50.4,72.1,47.9,69,43.1,66.1z"/>
</g>
</svg>
