<?xml version="1.0" encoding="utf-8"?>
<!-- Generator: Adobe Illustrator 22.0.1, SVG Export Plug-In . SVG Version: 6.00 Build 0)  -->
<svg version="1.1" id="Capa_1" xmlns="http://www.w3.org/2000/svg" xmlns:xlink="http://www.w3.org/1999/xlink" x="0px" y="0px"
	 viewBox="0 0 438.5 438.5" style="enable-background:new 0 0 438.5 438.5;" xml:space="preserve">
<style type="text/css">
	.st0{fill:#4D4D4D;}
</style>
<g>
	<path class="st0" d="M288.1,367.2c-12.7,0-23.9-3-33.4-8.9c-7.4-4.4-12.4-10.1-14.8-17.1c-2.7-6.9-4-23.2-4-49.1V179.6h103.9v-68.8
		H235.8V0h-62.5c-2.9,22.5-8,41.1-15.4,56c-7.4,14.7-17.2,27.2-29.4,37.7c-12.2,10.3-26.9,18.3-44.3,24v62h48.5v153.9
		c0,20.4,2.1,35.7,6.3,46c4,10.3,11.5,20.3,22.6,30c11.4,9.5,24.6,16.7,39.4,21.4c15.4,5.1,33.1,7.7,53.1,7.7
		c18.3,0,34.7-1.8,49.4-5.4c14.5-3.2,31.4-9.4,50.8-18.6v-69.1C332.4,359.9,310.3,367.2,288.1,367.2z"/>
</g>
</svg>
